# xmcd
#
# Track frame offsets: 
#        150
#        18437
#        38814
#        56957
#        79598
#        96697
#        117349
#        135675
#        157241
#
# Disc length: 2356 seconds
#
# Revision: 0
# Processed by: cddbd v1.5.2PL0 Copyright (c) Steve Scherf et al.
# Submitted via: ExactAudioCopyFreeDBPlugin 1.0
#
DISCID=7e093209
DTITLE=Cam Ly - Ke dung sau tinh yeu
DYEAR=1900
DGENRE=
TTITLE0=Chuyen ba tam
TTITLE1=Noi nho rieng em
TTITLE2=Ke dung sau tinh yeu
TTITLE3=Vong co buon
TTITLE4=Tinh dang
TTITLE5=Chuyen tnh yeu the gian
TTITLE6=Dong danh
TTITLE7=Em ve keo troi mua
TTITLE8=Vuong van tinh xua
EXTD=
EXTT0=
EXTT1=
EXTT2=
EXTT3=
EXTT4=
EXTT5=
EXTT6=
EXTT7=
EXTT8=
PLAYORDER=
